<?xml version="1.0" encoding="utf-8"?>
<!-- Generator: Adobe Illustrator 28.3.0, SVG Export Plug-In . SVG Version: 6.00 Build 0)  -->
<svg version="1.1" id="Capa_1" xmlns="http://www.w3.org/2000/svg" xmlns:xlink="http://www.w3.org/1999/xlink" x="0px" y="0px"
	 viewBox="0 0 102.5 21" style="enable-background:new 0 0 102.5 21;" xml:space="preserve">
<style type="text/css">
	.st0{enable-background:new    ;}
	.st1{fill:#010101;}
</style>
<g class="st0">
	<path class="st1" d="M0.5,3h6.9l1.5,6.7h0.4L10.7,3h6.9v14h-5.2v-4.7H12L11,17H7l-0.9-4.7H5.7V17H0.5V3z"/>
	<path class="st1" d="M29.1,12.7V17h-5.5v-4.3L18,3h5.7l2.5,4.6h0.4L29.1,3h5.7L29.1,12.7z"/>
	<path class="st1" d="M35.2,3h6.9l1.5,6.7H44L45.5,3h6.9v14h-5.2v-4.7h-0.4L45.8,17h-4l-0.9-4.7h-0.4V17h-5.2V3z"/>
</g>
<g class="st0">
	<path class="st1" d="M53.1,10c0-4.5,3.1-7.5,8.1-7.5c5,0,8.1,2.9,8.1,7.5c0,4.5-3.1,7.5-8.1,7.5C56.2,17.4,53.1,14.5,53.1,10z
		 M63.8,10c0-1.9-1.3-2.7-2.6-2.7c-1.4,0-2.6,0.9-2.6,2.7c0,1.8,1.2,2.7,2.6,2.7C62.6,12.7,63.8,11.8,63.8,10z"/>
</g>
<g class="st0">
	<path class="st1" d="M70,10c0-4.5,3.1-7.5,8.1-7.5c5,0,8.1,2.9,8.1,7.5c0,4.5-3.1,7.5-8.1,7.5C73.1,17.4,70,14.5,70,10z M80.7,10
		c0-1.9-1.3-2.7-2.6-2.7c-1.4,0-2.6,0.9-2.6,2.7c0,1.8,1.2,2.7,2.6,2.7C79.4,12.7,80.7,11.8,80.7,10z"/>
	<path class="st1" d="M102.1,10c0,4-1.9,7-7.8,7h-7.4V3h7.4C100.2,3,102.1,5.9,102.1,10z M96.6,10c0-1.9-1.1-2.4-2.3-2.4h-1.9v4.8
		h1.9C95.5,12.4,96.6,11.9,96.6,10z"/>
</g>
</svg>
